<svg xmlns="http://www.w3.org/2000/svg" viewBox="0 0 512 512">
  <rect width="512" height="512" rx="96" fill="#1565C0"/>
  <g transform="translate(256,240)">
    <!-- Car body -->
    <rect x="-120" y="10" width="240" height="70" rx="14" fill="#FFFFFF"/>
    <!-- Car roof -->
    <path d="M-70,10 L-45,-45 L45,-45 L70,10 Z" fill="#E3F2FD"/>
    <!-- Windows -->
    <path d="M-60,6 L-40,-38 L-5,-38 L-5,6 Z" fill="#1565C0" opacity="0.6"/>
    <path d="M5,6 L5,-38 L40,-38 L60,6 Z" fill="#1565C0" opacity="0.6"/>
    <!-- Wheels -->
    <circle cx="-70" cy="80" r="22" fill="#37474F"/>
    <circle cx="-70" cy="80" r="10" fill="#CFD8DC"/>
    <circle cx="70" cy="80" r="22" fill="#37474F"/>
    <circle cx="70" cy="80" r="10" fill="#CFD8DC"/>
    <!-- Water drops -->
    <circle cx="-30" cy="-80" r="8" fill="#26C6DA" opacity="0.9"/>
    <circle cx="10" cy="-100" r="6" fill="#26C6DA" opacity="0.7"/>
    <circle cx="40" cy="-75" r="10" fill="#26C6DA" opacity="0.8"/>
    <circle cx="-60" cy="-95" r="5" fill="#26C6DA" opacity="0.6"/>
    <circle cx="70" cy="-90" r="7" fill="#26C6DA" opacity="0.7"/>
    <!-- Sparkle lines -->
    <line x1="-30" y1="-95" x2="-30" y2="-110" stroke="#FFFFFF" stroke-width="3" stroke-linecap="round"/>
    <line x1="40" y1="-90" x2="40" y2="-105" stroke="#FFFFFF" stroke-width="3" stroke-linecap="round"/>
    <line x1="10" y1="-112" x2="10" y2="-125" stroke="#FFFFFF" stroke-width="2" stroke-linecap="round"/>
  </g>
  <!-- Text -->
  <!-- Wrench icon -->
  <g transform="translate(256,230)">
    <path d="M-15,-100 L-5,-60 L5,-60 L15,-100 Z" fill="#FFD54F" opacity="0.9"/>
    <circle cx="0" cy="-105" r="18" fill="none" stroke="#FFD54F" stroke-width="6" opacity="0.9"/>
  </g>
  <text x="256" y="420" text-anchor="middle" font-family="Arial,sans-serif" font-weight="800" font-size="52" fill="#FFFFFF">GARAGE</text>
</svg>
